<?xml version="1.0" encoding="utf-8"?>
<!-- Generator: Adobe Illustrator 16.0.0, SVG Export Plug-In . SVG Version: 6.00 Build 0)  -->
<!DOCTYPE svg PUBLIC "-//W3C//DTD SVG 1.1//EN" "http://www.w3.org/Graphics/SVG/1.1/DTD/svg11.dtd">
<svg version="1.1" id="Ebene_1" xmlns="http://www.w3.org/2000/svg" xmlns:xlink="http://www.w3.org/1999/xlink" x="0px" y="0px"
	 width="1242px" height="2436px" viewBox="0 0 1242 2436" enable-background="new 0 0 1242 2436" xml:space="preserve">
<g>
	<g>
		<path fill="#5AC1D0" d="M42.194,1294.023c0,4.534-1.661,8.328-4.971,11.38c-3.314,3.053-7.154,4.576-11.511,4.576
			c-4.883,0-8.807-1.523-11.771-4.576c-2.971-3.052-4.449-6.846-4.449-11.38V1142.81c0-4.533,1.569-8.326,4.708-11.38
			c3.139-3.048,7.15-4.577,12.037-4.577c4.182,0,7.887,1.529,11.116,4.577c3.227,3.054,4.84,6.847,4.84,11.38V1294.023z"/>
		<path fill="#5AC1D0" d="M220.351,1126.853c4.186,0,7.588,1.398,10.205,4.186c2.613,2.792,3.923,6.278,3.923,10.463v152.521
			c0,4.534-1.529,8.328-4.581,11.38c-3.051,3.053-6.846,4.576-11.379,4.576c-2.267,0-4.577-0.394-6.931-1.175
			c-2.354-0.789-4.146-1.875-5.366-3.271L103.41,1174.988l6.803-4.186v124.528c0,4.189-1.354,7.679-4.055,10.467
			c-2.708,2.79-6.237,4.183-10.595,4.183c-4.186,0-7.588-1.393-10.205-4.183c-2.617-2.788-3.923-6.277-3.923-10.467V1142.81
			c0-4.533,1.525-8.326,4.576-11.38c3.052-3.048,6.843-4.577,11.38-4.577c2.442,0,4.971,0.482,7.588,1.438
			c2.617,0.959,4.533,2.401,5.755,4.317l99.674,127.146l-4.446,3.139v-121.391c0-4.186,1.307-7.671,3.924-10.463
			C212.503,1128.251,215.989,1126.853,220.351,1126.853z"/>
		<path fill="#5AC1D0" d="M290.198,1309.979c-4.887,0-8.854-1.523-11.905-4.576c-3.052-3.052-4.577-6.846-4.577-11.38V1142.81
			c0-4.533,1.525-8.326,4.577-11.38c3.051-3.048,6.843-4.577,11.379-4.577h85.023c4.537,0,8.329,1.438,11.384,4.318
			c3.048,2.875,4.577,6.584,4.577,11.117c0,3.839-1.529,7.241-4.577,10.205c-3.055,2.967-6.847,4.445-11.384,4.445h-70.632
			l2.354-3.139v52.584l-1.832-3.4h58.34c4.533,0,8.325,1.437,11.38,4.317c3.048,2.876,4.577,6.584,4.577,11.118
			c0,3.839-1.529,7.24-4.577,10.204c-3.055,2.971-6.847,4.445-11.38,4.445h-58.862l2.354-2.351v63.308
			c0,4.534-1.613,8.328-4.839,11.38C298.348,1308.456,294.556,1309.979,290.198,1309.979z"/>
		<path fill="#5AC1D0" d="M479.603,1167.927l-56.508,132.893c-1.223,3.32-3.099,5.891-5.625,7.723
			c-2.532,1.833-5.277,2.744-8.24,2.744c-4.708,0-8.202-1.307-10.464-3.928c-2.271-2.612-3.401-5.838-3.401-9.679
			c0-1.562,0.259-3.225,0.784-4.962l65.14-156.449c1.394-3.485,3.533-6.187,6.409-8.11c2.879-1.916,5.974-2.7,9.288-2.354
			c3.139,0,6.059,0.916,8.763,2.748c2.704,1.833,4.664,4.406,5.887,7.716l64.355,153.31c0.873,2.261,1.311,4.356,1.311,6.277
			c0,4.707-1.53,8.459-4.581,11.248c-3.051,2.788-6.409,4.182-10.069,4.182c-3.143,0-5.979-0.962-8.504-2.875
			c-2.529-1.913-4.492-4.533-5.887-7.848l-56.245-131.067L479.603,1167.927z M431.204,1268.905l14.388-30.087h70.636l4.971,30.087
			H431.204z"/>
		<path fill="#5AC1D0" d="M718.454,1126.853c4.183,0,7.583,1.398,10.204,4.186c2.613,2.792,3.921,6.278,3.921,10.463v152.521
			c0,4.534-1.526,8.328-4.578,11.38c-3.05,3.053-6.846,4.576-11.386,4.576c-2.264,0-4.57-0.394-6.928-1.175
			c-2.357-0.789-4.146-1.875-5.365-3.271L601.51,1174.988l6.803-4.186v124.528c0,4.189-1.354,7.679-4.055,10.467
			c-2.708,2.79-6.237,4.183-10.595,4.183c-4.186,0-7.588-1.393-10.205-4.183c-2.617-2.788-3.923-6.277-3.923-10.467V1142.81
			c0-4.533,1.525-8.326,4.576-11.38c3.052-3.048,6.844-4.577,11.38-4.577c2.442,0,4.971,0.482,7.588,1.438
			c2.617,0.959,4.533,2.401,5.755,4.317l99.678,127.146l-4.452,3.139v-121.391c0-4.186,1.313-7.671,3.927-10.463
			C710.6,1128.251,714.089,1126.853,718.454,1126.853z"/>
		<path fill="#5AC1D0" d="M776.002,1156.937c-4.54,0-8.335-1.394-11.379-4.186c-3.059-2.788-4.577-6.449-4.577-10.985
			c0-4.533,1.519-8.153,4.577-10.858c3.044-2.701,6.839-4.055,11.379-4.055h116.155c4.534,0,8.329,1.398,11.38,4.186
			c3.053,2.792,4.577,6.453,4.577,10.986c0,4.54-1.524,8.157-4.577,10.857c-3.051,2.709-6.846,4.055-11.38,4.055H776.002z
			 M833.813,1309.979c-4.876,0-8.891-1.523-12.029-4.576c-3.139-3.052-4.708-6.846-4.708-11.38v-151.736h34.008v151.736
			c0,4.534-1.613,8.328-4.839,11.38C843.012,1308.456,838.88,1309.979,833.813,1309.979z"/>
		<path fill="#5AC1D0" d="M968.284,1294.023c0,4.534-1.666,8.328-4.972,11.38c-3.314,3.053-7.153,4.576-11.511,4.576
			c-4.885,0-8.803-1.523-11.767-4.576c-2.978-3.052-4.453-6.846-4.453-11.38V1142.81c0-4.533,1.569-8.326,4.708-11.38
			c3.139-3.048,7.146-4.577,12.037-4.577c4.182,0,7.883,1.529,11.116,4.577c3.227,3.054,4.841,6.847,4.841,11.38V1294.023z"/>
		<path fill="#5AC1D0" d="M1146.439,1126.853c4.182,0,7.585,1.398,10.205,4.186c2.613,2.792,3.92,6.278,3.92,10.463v152.521
			c0,4.534-1.526,8.328-4.576,11.38c-3.053,3.053-6.848,4.576-11.38,4.576c-2.264,0-4.578-0.394-6.935-1.175
			c-2.351-0.789-4.147-1.875-5.358-3.271l-102.819-130.546l6.803-4.186v124.528c0,4.189-1.35,7.679-4.051,10.467
			c-2.708,2.79-6.241,4.183-10.591,4.183c-4.19,0-7.593-1.393-10.205-4.183c-2.621-2.788-3.927-6.277-3.927-10.467V1142.81
			c0-4.533,1.524-8.326,4.576-11.38c3.052-3.048,6.84-4.577,11.38-4.577c2.438,0,4.971,0.482,7.592,1.438
			c2.612,0.959,4.525,2.401,5.751,4.317l99.674,127.146l-4.445,3.139v-121.391c0-4.186,1.307-7.671,3.927-10.463
			C1138.593,1128.251,1142.083,1126.853,1146.439,1126.853z"/>
		<path fill="#5AC1D0" d="M1232.508,1294.023c0,4.534-1.666,8.328-4.972,11.38c-3.313,3.053-7.153,4.576-11.511,4.576
			c-4.885,0-8.803-1.523-11.767-4.576c-2.978-3.052-4.453-6.846-4.453-11.38V1142.81c0-4.533,1.569-8.326,4.708-11.38
			c3.139-3.048,7.146-4.577,12.036-4.577c4.183,0,7.884,1.529,11.118,4.577c3.226,3.054,4.84,6.847,4.84,11.38V1294.023z"/>
	</g>
	<g>
		<g>
			<g>
				<path fill="#5AC1D0" d="M1215.704,1108.918c-7.227,0-13.081-5.858-13.081-13.081c0-150.127-67.752-510.141-235.449-510.141
					c-167.696,0-235.449,360.014-235.449,510.141c0,7.223-5.854,13.081-13.08,13.081c-7.227,0-13.082-5.858-13.082-13.081
					c0-137.455,64.411-536.301,261.611-536.301c197.201,0,261.61,398.847,261.61,536.301
					C1228.784,1103.061,1222.931,1108.918,1215.704,1108.918z"/>
			</g>
		</g>
	</g>
	<g>
		<g>
			<path fill="#5AC1D0" d="M307.932,1876.464c-224.672,0-298.049-398.847-298.049-536.3c0-7.227,5.858-13.081,13.081-13.081
				c7.223,0,13.081,5.854,13.081,13.081c0,150.126,78.235,510.14,271.888,510.14s271.888-360.014,271.888-510.14
				c0-7.227,5.858-13.081,13.08-13.081c7.223,0,13.081,5.854,13.081,13.081C605.981,1477.617,532.604,1876.464,307.932,1876.464z"/>
		</g>
	</g>
</g>
</svg>
